# xmcd CD database file
#
# Track frame offsets:
#	182
#	19515
#	31927
#	57740
#	70592
#	83082
#	96017
#	113022
#	127327
#	138972
#	148055
#	158152
#
# Disc length: 2236 seconds
#
# Revision: 1
# Processed by: cddbd v1.5.2PL0 Copyright (c) Steve Scherf et al.
# Submitted via: CDex 1.51
#
DISCID=a008ba0c
DTITLE=Honza Vycital - Semtex
DYEAR=1990
DGENRE=Country
TTITLE0=Semtex
TTITLE1=Rok 49
TTITLE2=Pisen z bobri hraze
TTITLE3=Divka s hlasem strdovym
TTITLE4=Kdyz do diskretnich cukrarny sten
TTITLE5=To tenkrat v sedesatom osmom
TTITLE6=Bry dodem jore marine ga ga
TTITLE7=Na vanoce rano
TTITLE8=David a Golias
TTITLE9=Paklicek karticek
TTITLE10=Ma whisky
TTITLE11=Honzuv song
EXTD=YEAR: 1990
EXTT0=
EXTT1=
EXTT2=
EXTT3=
EXTT4=
EXTT5=
EXTT6=
EXTT7=
EXTT8=
EXTT9=
EXTT10=
EXTT11=
PLAYORDER=
